/* XPM */
static char * firstpage_xpm[] = {
"16 16 6 1",
" 	c None",
".	c black",
"X	c white",
"o	c green",
"O	c #082008200820",
"+	c #618561856185",
"                ",
"                ",
"..     .        ",
"..    ..        ",
"..   .X.        ",
"..  .Xo.......O ",
".. .Xooooooooo.+",
"...Xoooooooooo.+",
".. .Xooooooooo.+",
"..  .Xo........+",
"..  +.X.++++++++",
"..   +..+       ",
"..    +.+       ",
"       ++       ",
"                ",
"                "};
