/* XPM */
static char * lastpage_xpm[] = {
"16 16 5 1",
" 	c None",
".	c black",
"X	c white",
"o	c green",
"O	c #618561856185",
"                ",
"                ",
"       .     .. ",
"       ..    .. ",
"       .X.   .. ",
"........Xo.  .. ",
".XXXXXXXooo. .. ",
".ooooooooooX... ",
".oooooooooX. .. ",
"........oX.O .. ",
"OOOOOOO.X.O  .. ",
"      O..O   .. ",
"      O.O    .. ",
"      OO        ",
"      O         ",
"                "};
