/* XPM */
static char * next_xpm[] = {
"22 22 5 1",
" 	c None",
".	c #000000000000",
"X	c #FFFFFFFFFFFF",
"o	c #861782078617",
"g  c green",
"                      ",
"                      ",
"                      ",
"                      ",
"                      ",
"    .      .......    ",
"   .X. .o  .......    ",
"  .XgX.X.             ",
" .XgggXX.  ........   ",
"  . gggX.             ",
"   . ggg.  .....      ",
"  . gggg.             ",
"  o......  ........   ",
"           ........   ",
"                      ",
"           ....       ",
"                      ",
"           ......     ",
"                      ",
"                      ",
"                      ",
"                      "};
