/* XPM */
static char * nextpage_xpm[] = {
"16 16 5 1",
" 	c None",
".	c black",
"X	c white",
"o	c green",
"O	c #618561856185",
"                ",
"                ",
"         .      ",
"        .X.     ",
"        .XX.    ",
"  .......Xoo.   ",
"  .XXXXXXoooo.  ",
"  .ooooooooooX. ",
"  .oooooooooX.  ",
"  .......ooX.O  ",
"  OOOOOOO.X.O   ",
"        O..O    ",
"        O.O     ",
"        OO      ",
"                ",
"                "};
