/* XPM */
static char * prevpage_xpm[] = {
"16 16 6 1",
" 	c None",
".	c black",
"X	c white",
"o	c green",
"O	c #F7DEF7DEF7DE",
"+	c #618561856185",
"                ",
"                ",
"      .         ",
"     ..         ",
"    .X.         ",
"   .Xo........  ",
"  .Oooooooooo.  ",
" .Xoooooooooo.  ",
"  .Xooooooooo.  ",
"  +.Xo........  ",
"   +.X.+++++++  ",
"    +..+        ",
"     +.+        ",
"      ++        ",
"       +        ",
"                "};
