/* XPM */
static char * reload_xpm[] = {
"22 22 3 1",
" 	c None",
".	c #000000000000",
"b  c blue",
"                      ",
"                      ",
"                      ",
"                      ",
"                      ",
"          ....        ",
"     .  ..b.b...      ",
"     ...b.    b.      ",
"     .bb.      ..     ",
"     .bbb       .     ",
"     b....      .     ",
"                .     ",
"                .     ",
"               .      ",
"              .       ",
"            ..        ",
"                      ",
"                      ",
"                      ",
"                      ",
"                      ",
"                      "};
